<svg width="118" height="112" viewBox="0 0 118 112" fill="none" xmlns="http://www.w3.org/2000/svg">
<path d="M51.4708 0.553946C19.7215 4.85395 -2.4195 33.1539 2.07136 63.5539C2.48912 66.1539 3.01131 68.7539 3.84682 71.6539C5.4134 76.0539 7.60661 80.2539 10.322 84.2539C10.322 90.1539 7.50217 95.6539 2.59356 99.1539C0.504784 100.654 -0.435158 103.054 0.191473 105.754C0.922543 108.154 3.01131 109.854 5.4134 110.254C15.2306 111.654 25.4656 109.654 33.8207 104.754C39.4604 107.654 45.6223 109.754 52.4108 111.054C54.7084 111.354 57.1105 111.454 59.5126 111.454C62.228 111.454 64.9434 111.254 67.6588 110.954C83.0113 108.854 96.6927 101.154 105.988 89.2539C115.283 77.3539 119.251 62.6539 117.058 47.9539C112.672 17.4539 83.2201 -3.74605 51.4708 0.553946Z" fill="#DC6B27"/>
<path d="M69.8721 66.625L81.7813 55.2219C83.1835 53.8793 85.0855 53.125 87.0685 53.125H87.4961C91.3896 53.125 94.5457 56.147 94.5457 59.875C94.5457 63.603 91.3896 66.625 87.4961 66.625H31.0992C27.2058 66.625 24.0496 63.603 24.0496 59.875C24.0496 56.147 27.2058 53.125 31.0992 53.125H47.0127C52.6217 53.125 58.0009 55.2583 61.9673 59.0562L69.8721 66.625Z" stroke="white" stroke-width="2.5" stroke-linecap="round" stroke-linejoin="round"/>
<path d="M27.5744 66.625H91.0208V73.375C91.0208 78.967 86.2867 83.5 80.4464 83.5H38.1488C32.3087 83.5 27.5744 78.967 27.5744 73.375V66.625Z" stroke="white" stroke-width="2.5" stroke-linecap="round" stroke-linejoin="round"/>
<path d="M59.2976 29.5C43.0015 29.5 29.5753 35.4257 27.7787 49.753C27.5466 51.6039 29.1525 53.125 31.0992 53.125H87.4961C89.4428 53.125 91.0487 51.6039 90.8164 49.753C89.0198 35.4257 75.5939 29.5 59.2976 29.5Z" stroke="white" stroke-width="2.5" stroke-linecap="round" stroke-linejoin="round"/>
<path d="M45.6197 36.3666C45.6197 35.865 45.7633 35.3925 46.0146 35C44.1118 35 42.5753 36.5701 42.5753 38.5036C42.5753 40.4372 44.119 42 46.0146 42C47.9101 42 49.461 40.4372 49.461 38.5036C49.0733 38.758 48.6066 38.9034 48.1111 38.9034C46.7397 38.8962 45.6197 37.7622 45.6197 36.3666Z" fill="white"/>
<path d="M72.1786 36.3666C72.1786 35.865 72.3222 35.3925 72.5735 35C70.6708 35 69.1343 36.5701 69.1343 38.5036C69.1343 40.4372 70.678 42 72.5735 42C74.469 42 76.0199 40.4372 76.0199 38.5036C75.6322 38.758 75.1655 38.9034 74.6701 38.9034C73.2987 38.8962 72.1786 37.7622 72.1786 36.3666Z" fill="white"/>
<path d="M59.7883 47.0038C61.6845 47.0038 63.4758 46.1031 64.6894 44.5393C65.1853 43.9013 66.0722 43.82 66.6615 44.3454C67.2566 44.8771 67.3383 45.8216 66.8423 46.4596C65.092 48.7115 62.5189 50 59.7883 50C57.0577 50 54.4846 48.7115 52.7342 46.4596C52.2441 45.8216 52.3199 44.8771 52.9151 44.3454C53.5044 43.82 54.3912 43.9013 54.8872 44.5393C56.1008 46.1094 57.892 47.0038 59.7883 47.0038Z" fill="white"/>
</svg>
