<svg width="257" height="184" viewBox="0 0 257 184" fill="none" xmlns="http://www.w3.org/2000/svg">
<path d="M114.471 72.5539C82.7215 76.8539 60.5805 105.154 65.0714 135.554C65.4891 138.154 66.0113 140.754 66.8468 143.654C68.4134 148.054 70.6066 152.254 73.322 156.254C73.322 162.154 70.5022 167.654 65.5936 171.154C63.5048 172.654 62.5648 175.054 63.1915 177.754C63.9225 180.154 66.0113 181.854 68.4134 182.254C78.2306 183.654 88.4656 181.654 96.8207 176.754C102.46 179.654 108.622 181.754 115.411 183.054C117.708 183.354 120.111 183.454 122.513 183.454C125.228 183.454 127.943 183.254 130.659 182.954C146.011 180.854 159.693 173.154 168.988 161.254C178.283 149.354 182.251 134.654 180.058 119.954C175.672 89.4539 146.22 68.2539 114.471 72.5539Z" fill="#DC6B27"/>
<path d="M132.872 138.625L144.781 127.222C146.183 125.879 148.085 125.125 150.069 125.125H150.496C154.39 125.125 157.546 128.147 157.546 131.875C157.546 135.603 154.39 138.625 150.496 138.625H94.0992C90.2058 138.625 87.0496 135.603 87.0496 131.875C87.0496 128.147 90.2058 125.125 94.0992 125.125H110.013C115.622 125.125 121.001 127.258 124.967 131.056L132.872 138.625Z" stroke="white" stroke-width="2.5" stroke-linecap="round" stroke-linejoin="round"/>
<path d="M90.5744 138.625H154.021V145.375C154.021 150.967 149.287 155.5 143.446 155.5H101.149C95.3087 155.5 90.5744 150.967 90.5744 145.375V138.625Z" stroke="white" stroke-width="2.5" stroke-linecap="round" stroke-linejoin="round"/>
<path d="M122.298 101.5C106.001 101.5 92.5753 107.426 90.7787 121.753C90.5466 123.604 92.1525 125.125 94.0992 125.125H150.496C152.443 125.125 154.049 123.604 153.816 121.753C152.02 107.426 138.594 101.5 122.298 101.5Z" stroke="white" stroke-width="2.5" stroke-linecap="round" stroke-linejoin="round"/>
<path d="M108.62 108.367C108.62 107.865 108.763 107.393 109.015 107C107.112 107 105.575 108.57 105.575 110.504C105.575 112.437 107.119 114 109.015 114C110.91 114 112.461 112.437 112.461 110.504C112.073 110.758 111.607 110.903 111.111 110.903C109.74 110.896 108.62 109.762 108.62 108.367Z" fill="white"/>
<path d="M135.179 108.367C135.179 107.865 135.322 107.393 135.574 107C133.671 107 132.134 108.57 132.134 110.504C132.134 112.437 133.678 114 135.574 114C137.469 114 139.02 112.437 139.02 110.504C138.632 110.758 138.166 110.903 137.67 110.903C136.299 110.896 135.179 109.762 135.179 108.367Z" fill="white"/>
<path d="M122.788 119.004C124.685 119.004 126.476 118.103 127.689 116.539C128.185 115.901 129.072 115.82 129.661 116.345C130.257 116.877 130.338 117.822 129.842 118.46C128.092 120.711 125.519 122 122.788 122C120.058 122 117.485 120.711 115.734 118.46C115.244 117.822 115.32 116.877 115.915 116.345C116.504 115.82 117.391 115.901 117.887 116.539C119.101 118.109 120.892 119.004 122.788 119.004Z" fill="white"/>
<g filter="url(#filter0_d_211_3)">
<path d="M30.4562 134.356C30.2951 134.349 30.0847 134.334 29.825 134.31C29.5686 134.267 29.2728 134.217 28.9375 134.16C28.129 134.024 27.1463 133.837 25.9895 133.601C24.8162 133.342 23.5461 133.057 22.179 132.745C20.7921 132.429 19.3971 132.102 17.9939 131.764C16.571 131.422 15.2072 131.09 13.9026 130.768C12.5816 130.423 11.4068 130.113 10.3783 129.838C10.3644 130.16 10.3522 130.472 10.3417 130.775L5.20301 130.576C5.27347 128.478 5.44447 126.266 5.71601 123.939C5.99088 121.592 6.31492 119.314 6.68813 117.105C6.96803 115.448 7.27571 113.868 7.61117 112.363C7.93024 110.834 8.25223 109.469 8.57715 108.266L13.4126 109.54C13.0818 110.417 12.7885 111.432 12.5328 112.586C12.2573 113.736 12.0063 114.981 11.7797 116.322C11.5464 117.703 11.3443 119.139 11.1733 120.632C10.9858 122.101 10.8248 123.534 10.6902 124.931C11.4656 125.143 12.2707 125.361 13.1054 125.583C13.9434 125.785 14.8109 125.993 15.7081 126.205C15.7433 125.156 15.8363 124.006 15.9871 122.753C16.1412 121.481 16.3232 120.224 16.5331 118.981C16.773 117.562 17.0374 116.237 17.3262 115.008C17.6183 113.759 17.9196 112.816 18.2301 112.179L22.9326 113.339C22.5416 114.693 22.2149 115.966 21.9525 117.159C21.6703 118.349 21.4326 119.515 21.2394 120.659C20.8628 122.887 20.6392 125.111 20.5685 127.331C22.6191 127.799 24.5745 128.231 26.4346 128.626C28.2981 129.002 29.8674 129.318 31.1426 129.574L30.4562 134.356Z" fill="black"/>
<path d="M46.1689 89.0517C45.1925 90.6583 44.0105 91.9294 42.6231 92.865C41.2524 93.8115 39.7642 94.4319 38.1583 94.726C36.5525 95.0202 34.9389 94.9998 33.3177 94.6648C31.6965 94.3299 30.1556 93.6896 28.6949 92.7441C27.3517 91.8747 26.1584 90.8165 25.1149 89.5695C24.0546 88.3116 23.2501 86.9216 22.7013 85.3994C22.1357 83.8664 21.9235 82.2525 22.0645 80.5577C22.216 78.8458 22.8266 77.1097 23.8965 75.3493C25.0079 73.5205 26.2846 72.1321 27.7264 71.184C29.1514 70.2251 30.6409 69.6413 32.1948 69.4325C33.7487 69.2238 35.3019 69.3243 36.8544 69.7338C38.4068 70.1434 39.863 70.7883 41.223 71.6686C42.8516 72.7228 44.1952 73.9378 45.254 75.3138C46.3127 76.6897 47.0705 78.1566 47.5273 79.7145C47.9674 81.2616 48.0769 82.8328 47.8559 84.4282C47.6349 86.0236 47.0726 87.5648 46.1689 89.0517ZM41.9631 86.3293C42.5863 85.3038 42.9194 84.1977 42.9622 83.0109C42.9883 81.8132 42.6334 80.6071 41.8977 79.3926C41.162 78.1781 39.9462 77.0221 38.2505 75.9244C36.7898 74.9789 35.4128 74.4924 34.1194 74.4649C32.826 74.4374 31.6722 74.7384 30.6579 75.3679C29.6437 75.9973 28.8302 76.8163 28.2173 77.8246C27.5214 78.9698 27.136 80.0658 27.0611 81.1128C26.9863 82.1598 27.1476 83.1454 27.5451 84.0696C27.9259 84.9828 28.4736 85.8137 29.1885 86.5622C29.9033 87.3107 30.7056 87.9729 31.5955 88.5489C32.4685 89.114 33.4035 89.4811 34.4004 89.6501C35.3804 89.8082 36.3493 89.7923 37.3068 89.6024C38.258 89.3846 39.1436 89.0053 39.9636 88.4644C40.7669 87.9127 41.4333 87.201 41.9631 86.3293Z" fill="black"/>
<path d="M70.529 62.1282C69.0189 63.248 67.4483 63.9773 65.8172 64.316C64.1974 64.6713 62.5943 64.6783 61.0078 64.3371C59.4214 63.9959 57.9481 63.3594 56.5879 62.4274C55.2278 61.4955 54.0579 60.3105 53.0784 58.8724C52.1777 57.55 51.4866 56.1095 51.0052 54.5508C50.5126 52.9755 50.3052 51.3754 50.3831 49.7503C50.4497 48.1086 50.8715 46.527 51.6485 45.0054C52.4416 43.4719 53.6655 42.0917 55.3202 40.8646C57.0392 39.59 58.7415 38.7879 60.4272 38.4584C62.1017 38.1123 63.692 38.1397 65.1981 38.5404C66.7042 38.9412 68.0916 39.6291 69.3601 40.604C70.6287 41.579 71.719 42.736 72.631 44.0749C73.7231 45.6783 74.4922 47.3221 74.9383 49.0065C75.3844 50.6909 75.5195 52.3447 75.3436 53.9679C75.1564 55.5745 74.6566 57.0771 73.8442 58.4757C73.0317 59.8743 71.9267 61.0918 70.529 62.1282ZM67.7086 57.9875C68.6725 57.2727 69.4009 56.3719 69.8937 55.285C70.3752 54.1815 70.5103 52.9245 70.299 51.5138C70.0877 50.1031 69.4135 48.563 68.2763 46.8935C67.2968 45.4554 66.2187 44.4761 65.0419 43.9554C63.8652 43.4348 62.6911 43.273 61.5196 43.47C60.3481 43.667 59.2884 44.1169 58.3406 44.8197C57.2642 45.6179 56.4917 46.4893 56.0229 47.434C55.5541 48.3787 55.3256 49.3567 55.3374 50.368C55.338 51.3628 55.5233 52.3448 55.8935 53.3143C56.2637 54.2837 56.7471 55.2065 57.3439 56.0826C57.9293 56.9421 58.6473 57.6412 59.4978 58.1799C60.337 58.702 61.2324 59.058 62.1839 59.2481C63.1403 59.4097 64.0981 59.396 65.0575 59.207C66.0056 59.0016 66.8893 58.595 67.7086 57.9875Z" fill="black"/>
<path d="M96.9343 49.6286L91.944 50.3852L88.6992 29.9702C88.2192 30.2109 87.7823 30.4618 87.3884 30.7227L85.4444 25.9498C86.4279 25.483 87.6522 24.9472 89.1173 24.3421C90.5824 23.7371 92.1212 23.2376 93.7337 22.8435C94.9771 22.5396 96.2693 22.3679 97.6103 22.3282C98.9471 22.2691 100.263 22.4002 101.559 22.7215C102.87 23.0185 104.089 23.5541 105.216 24.3282C106.363 25.0976 107.353 26.1418 108.188 27.4606C109.043 28.7748 109.682 30.4194 110.106 32.3944C110.701 35.1712 110.764 37.6564 110.294 39.8499C109.84 42.019 108.878 43.8284 107.41 45.2779C105.962 46.7226 104.052 47.7347 101.682 48.3139C100.108 48.6985 98.4913 48.7851 96.8306 48.5735C96.8757 48.9741 96.9102 49.3258 96.9343 49.6286ZM94.5869 27.8212C94.3149 27.8877 94.0332 27.9565 93.7418 28.0278C94.3278 31.7125 94.8179 34.8547 95.212 37.4544C95.6019 40.0345 95.9211 42.1895 96.1695 43.9193C96.7943 43.9724 97.4732 43.9917 98.2062 43.9772C98.9544 43.9384 99.7171 43.824 100.494 43.6341C102.068 43.2495 103.245 42.54 104.025 41.5056C104.824 40.4664 105.297 39.2395 105.443 37.8249C105.585 36.3907 105.491 34.9011 105.159 33.3563C104.895 32.1243 104.486 31.1232 103.932 30.353C103.379 29.5828 102.74 28.9878 102.016 28.5679C101.311 28.1432 100.576 27.8599 99.8093 27.718C99.0386 27.5564 98.2965 27.4806 97.5829 27.4903C96.8888 27.4953 96.2753 27.5424 95.7423 27.6314C95.2052 27.701 94.82 27.7642 94.5869 27.8212Z" fill="black"/>
<path d="M161.001 53.5588C162.622 50.8926 164.115 48.513 165.48 46.4201C166.873 44.3209 168.163 42.4292 169.35 40.7449C170.565 39.0544 171.71 37.4975 172.786 36.0742C173.888 34.6447 174.941 33.2781 175.944 31.9744L180.167 34.9578C179.778 35.4441 179.354 35.9678 178.896 36.5287C178.989 37.6844 179.065 38.9838 179.124 40.4269C179.199 41.8809 179.247 43.4001 179.267 44.9845C179.313 46.5628 179.338 48.1387 179.341 49.7123C179.354 51.2688 179.36 52.7608 179.358 54.1884C179.366 55.5989 179.361 56.8579 179.343 57.9655C180.177 56.8623 181.244 55.2425 182.542 53.1061C183.207 52.0123 183.876 50.8734 184.548 49.6895C185.221 48.5055 185.854 47.3674 186.448 46.2752C187.052 45.1658 187.567 44.1653 187.992 43.2735C188.427 42.3646 188.74 41.6383 188.93 41.0945L194.023 43.5696C193.547 44.4288 192.894 45.542 192.063 46.9093C191.26 48.2704 190.395 49.7115 189.471 51.2326C188.65 52.5828 187.816 53.9361 186.968 55.2925C186.131 56.6318 185.339 57.8577 184.593 58.9702C183.847 60.0827 183.194 60.9824 182.637 61.6692C181.559 63.0195 180.53 63.8657 179.55 64.2078C178.57 64.5499 177.576 64.3949 176.569 63.7428C175.746 63.2103 175.167 62.4307 174.832 61.404C174.514 60.3882 174.365 58.9583 174.386 57.1144C174.41 55.8437 174.424 54.3765 174.429 52.7129C174.462 51.0429 174.476 49.3256 174.472 47.561C174.485 45.8072 174.487 44.1295 174.478 42.528C173.128 44.4407 171.812 46.3751 170.53 48.3313C169.258 50.2704 168.134 52.0432 167.157 53.6498C166.846 54.1625 166.555 54.6411 166.285 55.0854C166.004 55.5469 165.753 55.9796 165.531 56.3836L161.001 53.5588Z" fill="black"/>
<path d="M196.76 84.7031C195.702 83.1493 195.02 81.5275 194.715 79.8378C194.395 78.1599 194.409 76.4948 194.758 74.8425C195.108 73.1901 195.74 71.6514 196.656 70.2263C197.571 68.8012 198.727 67.5705 200.125 66.5341C201.41 65.581 202.806 64.8442 204.314 64.3237C205.837 63.7912 207.38 63.5547 208.944 63.6141C210.524 63.6617 212.042 64.0789 213.496 64.866C214.963 65.6696 216.275 66.9226 217.435 68.6252C218.64 70.3939 219.39 72.1515 219.685 73.8982C219.996 75.6329 219.949 77.2851 219.543 78.8548C219.137 80.4245 218.457 81.8746 217.501 83.2051C216.545 84.5357 215.417 85.6834 214.116 86.6484C212.557 87.8039 210.964 88.6245 209.337 89.11C207.709 89.5956 206.115 89.7577 204.554 89.5964C203.009 89.4232 201.569 88.9239 200.233 88.0984C198.897 87.2729 197.739 86.1412 196.76 84.7031ZM200.784 81.7189C201.46 82.7107 202.318 83.4554 203.358 83.9529C204.414 84.4385 205.622 84.5623 206.984 84.3242C208.345 84.0861 209.837 83.3655 211.459 82.1623C212.857 81.1259 213.814 79.9931 214.331 78.764C214.848 77.5349 215.019 76.3132 214.845 75.0989C214.671 73.8847 214.251 72.7899 213.587 71.8146C212.833 70.7072 212.004 69.9162 211.1 69.4417C210.197 68.9673 209.258 68.7428 208.284 68.7684C207.326 68.7821 206.378 68.9876 205.44 69.3849C204.501 69.7821 203.607 70.2965 202.755 70.9278C201.92 71.5473 201.237 72.3023 200.707 73.1928C200.193 74.0714 199.839 75.0061 199.643 75.997C199.475 76.9925 199.476 77.9872 199.645 78.9812C199.83 79.9633 200.21 80.8759 200.784 81.7189Z" fill="black"/>
<path d="M208.703 112.713C208.497 111.755 208.863 110.698 209.802 109.543C210.724 108.412 212.062 107.354 213.814 106.37C215.113 105.662 216.693 104.875 218.551 104.009C220.415 103.162 222.527 102.286 224.888 101.379C227.254 100.493 229.821 99.6389 232.589 98.8183L233.905 103.807C232.119 104.346 230.359 104.91 228.624 105.498C226.894 106.106 225.265 106.71 223.738 107.31C222.21 107.91 220.84 108.481 219.628 109.025C218.439 109.583 217.481 110.074 216.754 110.499C216.592 110.6 216.464 110.672 216.371 110.716C216.282 110.778 216.221 110.824 216.186 110.853C216.268 110.854 216.401 110.852 216.584 110.849C216.771 110.865 216.968 110.878 217.175 110.89C218.268 110.931 219.697 110.921 221.463 110.86C223.233 110.819 225.2 110.698 227.366 110.498C229.531 110.298 231.76 110.011 234.051 109.636C234.202 109.579 234.356 109.531 234.511 109.493L235.66 114.707C232.764 115.6 230.287 116.442 228.228 117.233C226.169 118.025 224.425 118.76 222.996 119.438C221.591 120.131 220.393 120.743 219.403 121.273C219.349 121.307 219.266 121.348 219.153 121.396C219.064 121.459 218.974 121.512 218.881 121.555C218.986 121.571 219.111 121.581 219.256 121.587C219.419 121.588 219.593 121.587 219.776 121.583C220.662 121.614 221.761 121.592 223.075 121.518C224.411 121.459 225.87 121.349 227.451 121.189C229.036 121.049 230.664 120.867 232.334 120.644C234.007 120.441 235.627 120.22 237.191 119.982L238.298 125.145C236.999 125.38 235.6 125.578 234.101 125.738C232.606 125.918 231.086 126.074 229.539 126.205C227.993 126.336 226.491 126.435 225.033 126.503C223.6 126.586 222.27 126.633 221.046 126.644C219.826 126.675 218.804 126.678 217.981 126.653C216.002 126.581 214.4 126.262 213.175 125.697C211.954 125.152 211.245 124.42 211.048 123.5C210.842 122.542 211.064 121.624 211.714 120.744C212.368 119.885 213.573 118.88 215.331 117.731C215.778 117.436 216.351 117.101 217.047 116.725C217.747 116.368 218.524 115.983 219.375 115.569C218.233 115.581 217.199 115.576 216.275 115.555C215.374 115.549 214.632 115.524 214.051 115.481C212.844 115.385 211.871 115.232 211.13 115.022C210.39 114.812 209.838 114.525 209.473 114.161C209.09 113.802 208.833 113.319 208.703 112.713Z" fill="black"/>
</g>
<defs>
<filter id="filter0_d_211_3" x="0.433899" y="19.5174" width="242.039" height="123.312" filterUnits="userSpaceOnUse" color-interpolation-filters="sRGB">
<feFlood flood-opacity="0" result="BackgroundImageFix"/>
<feColorMatrix in="SourceAlpha" type="matrix" values="0 0 0 0 0 0 0 0 0 0 0 0 0 0 0 0 0 0 127 0" result="hardAlpha"/>
<feOffset dy="4"/>
<feGaussianBlur stdDeviation="2"/>
<feComposite in2="hardAlpha" operator="out"/>
<feColorMatrix type="matrix" values="0 0 0 0 0 0 0 0 0 0 0 0 0 0 0 0 0 0 0.25 0"/>
<feBlend mode="normal" in2="BackgroundImageFix" result="effect1_dropShadow_211_3"/>
<feBlend mode="normal" in="SourceGraphic" in2="effect1_dropShadow_211_3" result="shape"/>
</filter>
</defs>
</svg>
